<svg width="379" height="230" viewBox="0 0 379 330" fill="none" xmlns="http://www.w3.org/2000/svg">
  <g clip-path="url(#clip0_17820_6148)">
    <g clip-path="url(#clip1_17820_6148)">
      <path d="M40.2841 165.442C40.1344 165.442 40.009 165.326 40.0004 165.174C39.9919 165.018 40.1116 164.882 40.2684 164.874C40.3597 164.868 49.6286 164.318 65.4294 161.977C80.0128 159.815 103.302 155.642 131.431 148.036C181.111 134.604 255.725 107.652 329.058 55.5401C329.186 55.4489 329.364 55.4788 329.456 55.6071C329.547 55.7353 329.517 55.9135 329.389 56.0047C296.974 79.0383 261.607 99.1262 224.268 115.707C194.399 128.972 163.208 140.036 131.562 148.591C103.406 156.204 80.0955 160.379 65.4978 162.542C49.6771 164.887 40.3925 165.437 40.2998 165.442C40.2941 165.442 40.2884 165.442 40.2827 165.442H40.2841Z" fill="url(#paint0_linear_17820_6148)"/>
      <path style="mix-blend-mode:screen" d="M333.673 51.5214C334.053 51.4591 334.358 51.8313 334.222 52.1914L331.045 60.6087C330.879 61.0478 330.255 61.0373 330.104 60.5929L328.607 56.1848C328.567 56.066 328.483 55.9666 328.373 55.9066L324.696 53.9013C324.278 53.6734 324.385 53.046 324.854 52.9689L333.673 51.5214Z" fill="url(#paint1_radial_17820_6148)"/>
      <path d="M190.923 115.738L188.887 109.517L191.22 108.753C191.697 108.597 192.128 108.555 192.51 108.627C192.894 108.698 193.22 108.863 193.489 109.12C193.758 109.375 193.957 109.7 194.087 110.095C194.217 110.494 194.249 110.876 194.182 111.241C194.116 111.605 193.948 111.931 193.678 112.216C193.407 112.5 193.032 112.72 192.552 112.877L191.006 113.383L190.703 112.457L192.097 112C192.377 111.909 192.59 111.785 192.736 111.63C192.882 111.474 192.97 111.298 193 111.1C193.031 110.901 193.011 110.691 192.938 110.471C192.866 110.25 192.759 110.07 192.617 109.93C192.477 109.79 192.302 109.703 192.091 109.669C191.881 109.632 191.636 109.659 191.355 109.752L190.322 110.09L192.05 115.369L190.923 115.738Z" fill="#0055FF"/>
      <!-- Additional paths continue here with dark grays and blues -->
    </g>
  </g>
  <defs>
    <linearGradient id="paint0_linear_17820_6148" x1="0" y1="0" x2="1" y2="0">
      <stop offset="0%" stop-color="#1A1A1A" />
      <stop offset="100%" stop-color="#333333" />
    </linearGradient>
    <radialGradient id="paint1_radial_17820_6148" cx="0.5" cy="0.5" r="0.5">
      <stop offset="0%" stop-color="#0055FF" />
      <stop offset="100%" stop-color="#1A1A1A" />
    </radialGradient>
    <clipPath id="clip0_17820_6148">
      <rect width="379" height="330" fill="white" />
    </clipPath>
    <clipPath id="clip1_17820_6148">
      <rect width="379" height="330" fill="white" />
    </clipPath>
  </defs>
</svg>
